# xmcd
#
# Track frame offsets:
# 150
# 29512
# 45437
# 63782
# 79950
# 99645
# 120722
# 142595
# 158522
# 171340
# 195657
# 211602
# 229105
# 248497
# 263850
# 283557
# 302107
# 319840
#
# Disc length: 4491 seconds
#
# Revision: 1
# Processed by: cddbd v1.5PL3 Copyright (c) Steve Scherf et al.
# Submitted via: Easy CD Ripper v2.27
#
DISCID=ea118912
DTITLE=Eagles - gold collection
DYEAR=1998
DGENRE=Blues
TTITLE0=eagles
TTITLE1=Egales
TTITLE2=
TTITLE3=
TTITLE4=
TTITLE5=
TTITLE6=
TTITLE7=
TTITLE8=
TTITLE9=
TTITLE10=
TTITLE11=
TTITLE12=
TTITLE13=
TTITLE14=
TTITLE15=
TTITLE16=
TTITLE17=
EXTD=
EXTT0=
EXTT1=
EXTT2=
EXTT3=
EXTT4=
EXTT5=
EXTT6=
EXTT7=
EXTT8=
EXTT9=
EXTT10=
EXTT11=
EXTT12=
EXTT13=
EXTT14=
EXTT15=
EXTT16=
EXTT17=
PLAYORDER=
